<?xml version="1.0" encoding="UTF-8" standalone="no"?>
<!-- Created with Inkscape (http://www.inkscape.org/) -->

<svg
   xmlns:dc="http://purl.org/dc/elements/1.1/"
   xmlns:cc="http://creativecommons.org/ns#"
   xmlns:rdf="http://www.w3.org/1999/02/22-rdf-syntax-ns#"
   xmlns:svg="http://www.w3.org/2000/svg"
   xmlns="http://www.w3.org/2000/svg"
   xmlns:sodipodi="http://sodipodi.sourceforge.net/DTD/sodipodi-0.dtd"
   xmlns:inkscape="http://www.inkscape.org/namespaces/inkscape"
   width="83.301559mm"
   height="67.203384mm"
   viewBox="0 0 295.16301 238.12223"
   id="svg5631"
   version="1.1"
   inkscape:version="0.91 r13725"
   sodipodi:docname="whitecake.svg">
  <defs
     id="defs5633" />
  <sodipodi:namedview
     id="base"
     pagecolor="#ffffff"
     bordercolor="#666666"
     borderopacity="1.0"
     inkscape:pageopacity="0.0"
     inkscape:pageshadow="2"
     inkscape:zoom="0.98994949"
     inkscape:cx="77.06106"
     inkscape:cy="156.23033"
     inkscape:document-units="px"
     inkscape:current-layer="layer1"
     showgrid="false"
     inkscape:window-width="1440"
     inkscape:window-height="775"
     inkscape:window-x="0"
     inkscape:window-y="1"
     inkscape:window-maximized="1"
     fit-margin-top="0"
     fit-margin-left="0"
     fit-margin-right="0"
     fit-margin-bottom="0" />
  <metadata
     id="metadata5636">
    <rdf:RDF>
      <cc:Work
         rdf:about="">
        <dc:format>image/svg+xml</dc:format>
        <dc:type
           rdf:resource="http://purl.org/dc/dcmitype/StillImage" />
        <dc:title></dc:title>
      </cc:Work>
    </rdf:RDF>
  </metadata>
  <g
     inkscape:label="Layer 1"
     inkscape:groupmode="layer"
     id="layer1"
     transform="translate(-165.47347,-248.4398)">
    <g
       id="g6325">
      <path
         inkscape:connector-curvature="0"
         d="m 172.12389,483.29099 c 0.20434,-3.68861 0.0911,-7.38347 0.15602,-11.0752 0.0139,-3.80598 -0.0473,-7.61146 -0.0565,-11.41738 0.003,-3.19445 -0.0404,-6.38972 0.01,-9.58381 0.003,-3.00392 -0.003,-6.00866 -0.0666,-9.01203 -0.0224,-1.15186 -0.0807,-2.30393 -0.0805,-3.45585 -0.0189,-0.66226 -0.0121,-1.32358 0.0119,-1.98546 0.0138,-1.6551 0.0461,-3.31009 0.0868,-4.96473 -0.21951,-5.11956 -0.49975,-10.24471 -0.627,-15.37568 -0.10623,-7.15241 -0.10929,-14.30567 -0.18617,-21.45844 -0.0782,-3.5846 -0.0863,-7.17232 -0.24672,-10.75451 -0.38879,-6.35258 5.0219,-4.77657 13.50075,-9.23114 0.19804,-0.10404 0.44597,0.0776 0.66871,0.0568 0.23229,-0.0217 0.4505,-0.12149 0.67576,-0.18223 4.23909,-0.71922 8.3996,-1.9657 12.45076,-3.38978 15.06324,-4.39649 30.30221,-8.21871 45.52064,-12.04619 21.64678,-5.59716 43.09479,-11.90358 64.48429,-18.40205 18.93991,-5.99027 38.12366,-11.208 57.45578,-15.76708 10.04845,-2.32265 20.22039,-4.05801 30.31682,-6.14517 4.07163,-0.84169 8.11388,-1.8197 12.17211,-2.72377 8.49067,-1.61644 16.7452,-4.16599 25.03405,-6.55699 2.26014,-1.08787 4.74814,-1.54967 7.09405,-2.37931 1.47259,-0.52078 2.76168,-1.15995 4.28769,-1.5342 1.09834,-0.35092 2.22141,-0.53712 3.37279,-0.50589 -28.53129,15.00965 -12.93627,11.151 -12.39149,6.12097 0.0498,-1.67039 -1.91958,-3.22222 -3.05629,-4.19185 -2.21009,-2.24921 -4.85455,-3.94072 -7.34343,-5.84092 -1.85633,-1.41727 -3.61632,-2.95648 -5.42401,-4.43528 -6.4338,-5.1341 -12.26366,-10.95933 -18.53875,-16.27396 -4.37002,-3.53393 -8.56766,-7.26138 -12.93701,-10.79628 -2.39538,-2.25277 -5.08945,-4.13891 -7.65896,-6.18282 -1.62448,-1.3703 -3.56282,-2.25813 -5.22805,-3.57992 -0.191,-0.099 -0.40641,-0.16089 -0.57302,-0.297 -0.22191,-0.18129 -0.36166,-0.44751 -0.57394,-0.64 -0.4869,-0.44152 -1.06298,-0.49613 -1.52144,-0.98456 -0.52317,-0.41555 -0.88208,-0.61715 -1.51499,-0.55594 -2.74125,-0.27118 -5.29521,0.64178 -7.8741,1.4736 -9.12884,3.0571 -18.13596,6.44479 -27.15135,9.8181 -12.58397,4.59172 -24.92184,9.77697 -37.20539,15.10916 -11.71407,4.84819 -22.99229,10.63811 -34.31668,16.31373 3.49048,-2.25748 -13.14603,7.36952 -9.90487,5.44776 2.38159,-1.41211 9.60159,-5.5196 7.20374,-4.13527 -53.2311,30.73149 27.92901,-16.07703 -24.54168,14.17065 -6.79049,3.59689 -13.41568,7.50611 -20.23266,11.05038 19.52376,-11.27365 5.66465,-3.3242 1.50402,-0.52248 -1.6562,1.11526 -3.06344,2.16348 -4.67823,3.33973 -4.26,2.99653 -8.33203,6.24598 -12.31436,9.59933 -3.18583,2.72742 -6.44856,5.35205 -9.79631,7.87859 -2.34962,1.95096 -4.29964,4.32038 -6.42252,6.50487 -1.05092,1.28707 -2.33724,2.38686 -3.27518,3.76095 -0.63392,0.79865 -0.94204,1.81027 -1.57173,2.61469 -0.16197,0.88204 -0.24631,0.78817 -0.78137,1.2223 -0.17714,0.14374 -0.29505,0.48926 -0.45386,0.6713 -0.158,0.50699 -0.17924,1.06953 -0.15278,1.59987 0.0142,0.77656 -4e-5,1.55447 -0.009,2.33193 -0.0998,1.37362 0.0389,2.68631 0.36107,4.01956 0.23752,1.15837 0.5526,2.30723 0.77625,3.46922 -0.10362,0.81023 0.14428,1.13496 0.41772,1.84296 0.22387,0.40841 0.41228,0.87205 0.80845,1.14285 0.36894,0.57999 0.87444,0.98541 1.24952,1.52116 0.27908,0.55612 0.63108,0.27962 1.15403,0.27072 0.69204,0.0432 1.15652,1.53852 1.25314,2.16078 0.11725,0.75775 0.0819,1.53436 0.0543,2.29864 -0.009,1.37682 -0.0273,2.75304 -0.0311,4.13003 -0.0113,1.79393 -0.0189,3.58788 -0.0232,5.38184 -0.0617,2.27 0.0616,4.54381 -0.10053,6.80918 -0.26779,1.88778 -0.53151,3.77377 -0.7503,5.66775 -0.004,1.3699 -0.43657,2.66877 -0.81614,3.9687 -0.6396,1.41389 -0.38811,3.06688 -0.5022,4.58523 -0.34256,2.09027 -0.58895,4.1916 -0.73763,6.30421 -0.30937,2.15561 -0.74832,4.28092 -0.96625,6.45059 -0.0781,2.15994 -0.57876,4.27342 -0.89027,6.40798 -0.26877,2.58725 -0.31972,5.18873 -0.34126,7.78763 0.006,3.10085 -0.20314,6.1894 -0.16044,9.29096 0.0718,2.48629 0.12788,4.97273 0.17861,7.45948 0.0489,1.66134 0.0461,3.32349 0.0608,4.98528 0.0368,1.22705 -0.002,2.45378 0.0174,3.68092 -0.0135,1.19148 0.004,2.38292 -8.7e-4,3.57438 0.008,0.94348 0.009,1.88691 0.0187,2.83034 0.002,0.85334 -0.0227,1.7054 0.008,2.55879 0.0175,0.63799 -0.0174,1.27697 2.1e-4,1.9151 -0.078,0.25247 0.20765,1.75508 -0.10317,1.01248 0.14667,-0.41019 0.99548,-0.2876 1.35833,-0.28826 2.77456,0.17229 5.4655,0.002 8.19536,-0.51242 6.78918,-0.82445 13.43231,-2.51161 20.2184,-3.33534 9.04278,-1.31305 18.14267,-2.06214 27.22909,-2.96384 11.54673,-1.19517 22.96215,-3.33388 34.46082,-4.86244 9.03619,-1.18112 18.01217,-2.77776 27.08822,-3.63731 3.77552,-0.35756 9.89301,-0.78608 13.66966,-1.06313 13.60894,-1.14719 27.22586,-2.19032 40.8414,-3.25957 10.85612,-1.03445 21.7437,-1.6574 32.59905,-2.70484 8.42413,-0.68249 16.7843,-1.94674 25.18758,-2.81869 6.84499,-1.11725 13.77924,-1.41154 20.64295,-2.36173 4.80051,-0.3657 9.58368,-0.73477 14.29848,-1.73911 1.75847,-0.53236 3.62322,-0.50893 5.40767,-0.88657 1.88267,-0.39842 0.0324,-0.19881 1.84815,-0.33599 5.16378,-1.82136 10.273,-5.52909 -10.98735,6.61192 -0.0528,0.0301 0.0697,-0.12275 0.13022,-0.12748 0.0754,-0.006 0.13526,0.0676 0.2029,0.10143 0.35067,-0.37245 0.13205,-1.34059 0.12045,-1.83415 -0.11803,-2.32869 0.16379,-4.61526 0.49389,-6.91433 1.01218,-5.09617 1.97799,-10.20342 2.74196,-15.34317 0.61084,-4.29596 0.788,-8.63385 0.8856,-12.9665 0.0526,-3.94557 0.0395,-7.89145 0.0592,-11.83721 0.006,-4.31546 -0.0102,-8.63092 -0.0182,-12.94637 -0.0284,-4.00899 0.009,-8.01809 -0.0189,-12.02715 0.01,-3.55624 -0.0271,-7.11232 -0.0331,-10.66848 0.0483,-2.97737 -0.4783,-5.91776 -0.71444,-8.87845 -0.20099,-3.19964 -0.18415,-6.40034 -0.54895,-9.58752 -0.6219,-2.74925 -0.77637,-5.56989 -0.81701,-8.37904 -0.21111,-2.24066 -0.76687,-4.42149 -0.95542,-6.6706 -0.37709,-1.44885 -0.8626,-2.83648 -1.02662,-4.33978 -0.0156,-1.20302 -0.68128,-2.21434 -0.92864,-3.37237 -0.38053,-1.04537 -0.90592,-2.01356 -1.42224,-2.99251 -0.53621,-1.06932 -0.99799,-2.25746 -1.77963,-3.18361 -0.56236,-1.1661 -1.26659,-2.22858 -1.6925,-3.45732 -0.70988,-0.86575 -0.97467,-2.00438 -1.5416,-2.97908 -0.375,-0.96876 -1.06773,-1.72322 -1.46237,-2.67996 -0.0926,-1.02279 -0.65557,-1.73116 -1.045,-2.63583 -0.31116,-0.66094 -0.3229,-1.38025 -0.38009,-2.09287 0,0 13.45244,-6.86142 13.45244,-6.86142 l 0,0 c -0.0422,0.54316 -0.0694,1.10051 0.0752,1.63059 0.30253,0.92286 1.0848,1.61591 1.03573,2.65963 0.28415,0.91331 1.11066,1.54147 1.33803,2.49429 0.22496,0.42556 0.5189,0.81455 0.7192,1.25226 0.31302,0.68402 0.33477,1.45983 0.98674,1.99262 0.28705,1.0912 0.95237,1.94507 1.38208,2.97291 0.81233,1.02678 1.36466,2.28847 1.94251,3.44342 0.56922,1.12633 1.17892,2.2007 1.64692,3.38382 0.16675,1.24095 0.96359,2.24413 0.95933,3.50398 0.10732,1.54169 0.5231,2.93595 0.99899,4.39226 0.11717,2.2982 0.52754,4.52581 0.90492,6.78645 0.0374,2.76734 0.025,5.56871 0.69953,8.27204 0.37112,3.20422 0.41765,6.40773 0.57893,9.62792 0.24799,2.99853 0.76949,5.98373 0.74957,8.99505 -0.006,3.56744 -0.043,7.13482 -0.0334,10.70235 -0.0273,4.01482 0.009,8.02966 -0.0164,12.04442 -0.004,4.31679 -0.0139,8.63363 0.007,12.95039 0.0323,3.94858 0.0585,7.89854 -0.003,11.84677 -0.0925,4.41487 -0.33514,8.82727 -0.95244,13.20405 -0.74929,5.08952 -1.70183,10.14233 -2.55465,15.2135 -0.23748,2.24435 -0.60476,4.29834 -0.33512,6.57322 0.0328,0.77544 0.0622,1.55141 0.18673,2.31891 0.0393,0.31727 0.18997,0.48754 -0.0936,0.65666 -5.39166,3.21516 -9.14728,7.40561 -14.91718,8.08545 -2.33179,0.4433 -4.70424,0.63753 -7.0237,1.15993 -4.66956,0.78624 -9.38642,1.03737 -14.09642,1.47715 -6.83604,0.81547 -13.71706,1.21184 -20.53095,2.23644 -8.32845,0.88578 -16.63293,2.00573 -24.98672,2.6465 -10.77852,0.93655 -21.5804,1.56128 -32.35917,2.497 -13.58133,0.93789 -27.15085,2.01103 -40.71511,3.16793 -2.91932,0.22232 -10.68376,0.79615 -13.62316,1.08911 -9.0986,0.90684 -18.10173,2.53646 -27.16234,3.73754 -11.59306,1.6603 -23.12019,3.80071 -34.77482,5.03149 -9.14015,0.91767 -18.28096,1.80277 -27.37401,3.13641 -6.86275,1.04945 -13.63755,2.59934 -20.50776,3.61403 -2.89668,0.45604 -5.79023,0.61143 -8.72279,0.57126 -0.85266,-0.0163 -1.60705,-0.0977 -2.17195,-0.818 -0.38288,-0.63482 -0.40864,-1.15008 -0.34484,-1.88745 0.0171,-0.63822 -0.0168,-1.27723 2.1e-4,-1.91531 0.03,-0.85625 0.007,-1.71109 0.008,-2.56725 0.01,-0.9498 0.0111,-1.8996 0.0187,-2.84944 -0.005,-1.19144 0.0128,-2.38285 -1.1e-4,-3.5743 0.0196,-1.23282 -0.0172,-2.46522 0.019,-3.69796 0.0126,-1.66917 0.005,-3.33831 0.018,-5.00753 -0.006,-2.50039 -0.0488,-5.00007 -0.0917,-7.50013 -0.0419,-3.11651 0.15838,-6.20484 0.14756,-9.31862 0.015,-2.63044 -0.0472,-5.26913 0.20518,-7.89062 0.16552,-2.15173 0.72659,-4.23545 0.94036,-6.37494 0.11053,-2.16488 0.37626,-4.2999 0.91377,-6.40508 0.12234,-2.13079 0.34954,-4.25456 0.68762,-6.36208 0.26808,-1.66627 0.0121,-3.36128 0.18025,-5.04141 0.77922,-0.83121 0.94266,-2.38468 1.1303,-3.46212 0.1113,-1.9298 0.53775,-3.81974 0.80101,-5.73066 0.33102,-2.19786 0.0974,-4.43291 0.14099,-6.64922 -0.004,-1.78701 -0.0119,-3.574 -0.0208,-5.36098 -10e-4,-1.37086 -0.0162,-2.74111 -0.0129,-4.1118 -0.0218,-0.71271 -0.0104,-1.42565 -0.0217,-2.13853 -0.002,-0.22938 -0.25149,-0.87484 -0.14164,-0.67345 0.20362,0.37328 0.28733,0.32524 -0.0752,0.25397 -0.72692,-0.17865 -1.40029,-0.53938 -1.74959,-1.23962 -0.4891,-0.40152 -0.74341,-0.96962 -1.21164,-1.37943 -0.43507,-0.52453 -0.8684,-1.09067 -1.10867,-1.73054 -0.23559,-0.74275 -0.87524,-1.32118 -0.60322,-2.17822 0.0409,-1.12512 -0.49577,-2.20325 -0.60177,-3.32545 -0.33241,-1.42884 -0.69398,-2.82309 -0.55837,-4.30583 -0.0127,-0.76062 -0.0269,-1.5208 -0.046,-2.2807 0.009,-0.65401 -0.0467,-1.30633 -0.0127,-1.96029 0.005,-0.26643 0.34872,-1.68252 0.45078,-1.79926 0.17706,-0.20253 0.66158,0.22468 0.78084,-0.20395 0.11905,-1.1822 1.13206,-1.94893 1.39389,-3.07167 0.30246,-0.3754 0.48384,-0.83861 0.78733,-1.21318 0.15734,-0.19418 0.41944,-0.2839 0.57923,-0.47606 0.21138,-0.25421 0.29103,-0.60587 0.5193,-0.84503 0.22091,-0.23145 0.57681,-0.3026 0.79733,-0.53442 0.26346,-0.27696 0.41693,-0.6408 0.6254,-0.9612 2.29094,-2.13386 4.30418,-4.52751 6.50981,-6.74743 2.17645,-1.6292 4.46181,-3.18827 6.5411,-4.9386 0.57162,-0.48119 1.05734,-1.05833 1.6263,-1.54268 0.56178,-0.47826 1.17397,-0.89394 1.76096,-1.3409 3.92579,-3.49693 8.1468,-6.67792 12.40307,-9.76058 8.76212,-6.49154 18.18033,-11.89206 27.76857,-17.11033 6.69331,-3.59318 13.32574,-7.29902 20.00176,-10.92497 -18.43461,10.71385 -0.44071,0.25174 8.1725,-4.72308 2.50395,-1.44623 -10.00616,5.80154 -7.49814,4.36237 8.75149,-5.02186 17.39179,-10.2675 26.37835,-14.8706 11.27908,-5.63465 22.54801,-11.30889 34.20736,-16.13079 12.3208,-5.32963 24.71579,-10.46082 37.31255,-15.10977 9.27838,-3.52303 18.54308,-7.08182 27.92751,-10.31652 2.81846,-0.84478 5.71554,-1.73768 8.68925,-1.22047 0.7624,0.25634 1.38244,0.74712 1.99518,1.26209 0.94758,0.47641 1.61445,1.32189 2.50145,1.88619 1.70613,1.24174 3.54528,2.303 5.1561,3.67253 2.53309,2.06548 5.13952,4.04098 7.50312,6.30689 4.25227,3.62693 8.34506,7.43486 12.63329,11.02089 6.14011,5.4383 11.95856,11.25397 18.50679,16.22243 0.11397,0.0879 5.16879,3.99252 5.53047,4.25346 2.606,1.88011 5.34502,3.57096 7.67744,5.80969 1.53421,1.31722 3.77915,2.99851 3.95701,5.18383 0.43847,6.39921 -3.4929,4.6518 -13.20051,9.60628 -1.00597,0.11772 -1.98166,0.38674 -2.95962,0.64386 -3.67377,1.1958 -7.32059,2.4719 -11.00815,3.6308 -8.12127,2.31403 -16.27277,4.51748 -24.57723,6.09357 -13.93729,2.97619 -27.96517,5.47619 -41.90323,8.45021 -19.19238,4.49933 -38.24274,9.60591 -57.04158,15.5505 -21.42524,6.45507 -42.90792,12.70637 -64.55382,18.38815 -15.63894,4.09659 -31.32491,8.13443 -46.71138,13.10522 -4.32544,1.48037 -8.69291,2.91173 -13.20968,3.68938 -5.3438,0.57283 -9.23728,5.61804 11.17871,-6.99297 0.20478,-0.12649 -0.63677,-0.27016 -0.72071,-0.0446 -0.069,0.18532 -0.0211,0.3949 -0.0316,0.59235 -0.1677,3.66679 -0.18687,7.33917 -0.26022,11.00868 -0.062,7.14566 -0.062,14.29237 0.14251,21.43612 0.10105,3.10161 0.2064,6.19985 0.48044,9.29227 0.07,0.78949 0.16596,1.57646 0.24894,2.3647 0.10981,0.67007 0.26155,1.3346 0.32942,2.01021 0.0507,0.50477 0.0169,1.01448 0.0254,1.52172 0.041,1.62513 0.0733,3.25062 0.0868,4.87623 0.0248,0.65783 0.0302,1.31507 0.0119,1.97333 1.3e-4,1.17928 -0.0588,2.35868 -0.0805,3.53791 -0.0627,3.026 -0.0696,6.05333 -0.0666,9.07987 0.0509,3.19076 0.006,6.38276 0.01,9.57389 -0.009,3.82511 -0.0702,7.64978 -0.0565,11.47495 0.0652,3.63871 -0.0507,7.2808 0.15602,10.91621 0,0 -13.34622,6.80023 -13.34622,6.80023 z"
         id="path6183"
         style="opacity:1;fill:#000000;fill-opacity:1;fill-rule:nonzero;stroke:#000000;stroke-opacity:1" />
      <path
         inkscape:connector-curvature="0"
         d="m 183.56074,417.62485 c 5.52031,0.17069 11.0452,0.18789 16.56805,0.23228 9.27924,0.051 18.5586,0.0487 27.83795,0.0627 8.76371,0.005 17.51997,0.0788 26.27261,-0.3986 6.00055,-0.26168 11.84167,-1.56986 17.70913,-2.72351 4.81792,-1.29892 9.75533,-2.13776 14.52763,-3.60419 0.83943,-0.16206 1.68825,-0.28139 2.51829,-0.48617 0.77271,-0.19063 1.51468,-0.49154 2.28321,-0.69839 3.60791,-0.97108 7.29516,-1.61809 10.9088,-2.57295 5.34713,-1.74237 10.87722,-2.73312 16.28301,-4.26018 5.5318,-1.27975 11.14554,-2.17873 16.69371,-3.39287 3.48906,-0.51543 6.90675,-1.4247 10.3743,-2.04624 7.4368,-1.33302 -1.65433,0.60436 5.55626,-0.99319 6.43293,-1.23159 12.96801,-1.82853 19.37066,-3.20984 6.1008,-1.28425 12.20801,-2.48978 18.33718,-3.63246 3.32947,-0.79533 6.72538,-1.20502 10.08176,-1.85315 8.00178,-1.54518 -3.50856,0.35988 4.60089,-0.93487 3.80252,-1.12322 7.76671,-1.41585 11.52147,-2.70948 1.83291,-0.59793 3.89035,-0.92067 5.71244,-1.50203 0.83002,-0.26482 1.60944,-0.6719 2.43597,-0.9474 -0.91531,0.29274 2.8741,-1.41732 2.18217,-1.01215 -3.91087,2.29008 -15.79518,8.89556 -11.82331,6.71299 4.60278,-2.52926 9.1066,-5.23627 13.71617,-7.75313 0.2989,-0.1632 1.27773,-0.44647 0.98438,-0.27348 -3.96582,2.3386 -8.01973,4.52448 -12.02959,6.78673 4.73798,-2.75265 11.62976,-6.75861 14.68236,-8.45266 0.35563,-0.19736 1.53259,-0.3568 1.92914,-0.51029 0.58718,-0.22726 1.1235,-0.57132 1.70435,-0.81431 0.29487,-0.0577 0.61161,-0.0476 0.88462,-0.17312 1.75561,-0.80695 -0.36844,-0.31288 1.32046,-0.86548 0.25851,-0.0846 1.03634,-0.28842 0.80204,-0.15027 -4.01648,2.36837 -16.33428,8.99773 -12.18824,6.86428 4.64599,-2.39073 9.12603,-5.09104 13.68905,-7.63656 0.23883,-0.0819 0.49337,-0.12759 0.71649,-0.24578 0.24998,-0.13242 0.43229,-0.37538 0.6873,-0.49784 0.56853,-0.27303 2.381,-0.77052 1.83773,-0.45017 -4.01291,2.36628 -16.17392,9.24968 -12.19655,6.82414 4.44195,-2.70886 9.06078,-5.11642 13.59116,-7.67462 4.72753,-2.0841 10.18255,-5.79893 -11.1435,6.49438 -0.13371,0.0771 0.29465,-0.099 0.42796,-0.17673 13.66063,-7.9687 8.33581,-6.425 13.71206,-7.94465 -0.26243,0.90056 1.18349,-0.4112 0.9088,-0.25733 -4.17758,2.34015 -16.59328,9.56559 -12.47492,7.12271 4.64181,-2.75337 8.7845,-7.62837 14.17813,-7.8184 0.67909,-0.0315 1.35524,0.0332 2.03471,0.0465 0.0546,-0.17522 0.32526,-0.61321 0.16395,-0.52565 -4.2455,2.3042 -8.36805,4.82806 -12.54894,7.24751 -0.12882,0.0745 0.26756,-0.131 0.39624,-0.20578 13.4907,-7.83926 8.28531,-6.84129 13.7472,-7.8398 0.25912,-0.1627 0.67384,0.34562 0.90051,0.22428 0.0999,-0.0535 0.25008,-0.3598 0.15111,-0.30458 -4.26262,2.37817 -8.46202,4.86792 -12.69302,7.30188 0,0 13.86047,-5.92302 13.86047,-5.92302 l 0,0 c -4.36891,2.60662 -8.73782,5.21323 -13.10672,7.81984 -0.18969,-0.0453 -0.47097,-0.1844 -0.68779,-0.0803 -0.0316,0.0152 -0.25647,0.21992 -0.29014,0.25014 -4.25926,2.84939 0.66479,-0.45199 12.12317,-7.10501 0.15497,-0.09 -0.2142,0.30049 -0.3687,0.39127 -13.25497,7.78874 -8.12653,8.07697 -13.8758,7.60593 -0.60014,-0.006 -1.20018,0.014 -1.75842,0.26268 -0.2039,0.12113 -0.83662,0.44669 -0.63206,0.32668 4.11855,-2.41633 16.54362,-9.54487 12.37584,-7.21448 -14.78837,8.26884 -8.57043,6.09454 -14.22965,7.99254 -4.02829,2.32824 7.93528,-4.86436 11.98952,-7.14711 0.18392,-0.10356 -0.10762,0.45495 -0.28855,0.56367 -4.98087,2.99314 -9.43847,5.98951 -14.59174,8.18133 4.02727,-2.33448 16.34156,-8.88049 12.08182,-7.00343 -5.77522,2.54486 -10.77182,6.81175 -16.74199,8.98782 4.00386,-2.32411 16.21576,-8.91071 12.01158,-6.97234 -5.69778,2.62702 -10.60358,6.83429 -16.51096,8.96618 -0.85847,0.36235 -1.76291,0.60762 -2.61616,0.97666 -0.3043,0.13161 -1.17569,0.61238 -0.88961,0.44482 15.11753,-8.85437 15.49873,-9.09902 10.85911,-6.25734 -4.55552,2.57875 -9.09572,5.18477 -13.66656,7.73626 -0.28004,0.15632 -1.15786,0.54813 -0.88185,0.3848 3.92609,-2.32329 15.90921,-8.92632 11.83789,-6.86813 -4.71101,2.38157 -9.15574,5.25717 -13.75967,7.83966 -0.36851,0.20671 -1.90407,0.79829 -2.22301,0.92476 -2.64716,0.92602 -5.38197,1.562 -8.07775,2.32913 -3.80299,0.99923 -7.69686,1.5579 -11.51802,2.48187 -4.86035,0.91357 -9.72086,1.82279 -14.58284,2.7241 -6.08796,1.05722 -12.11497,2.3972 -18.18246,3.55967 -6.47778,1.26567 -13.04657,1.98057 -19.5117,3.32033 -5.30395,1.02724 -10.61584,2.00908 -15.91957,3.03743 -5.55217,1.13078 -11.13434,2.11435 -16.64181,3.46087 -5.4166,1.43616 -10.90747,2.58446 -16.2708,4.22355 -5.25515,1.32113 -10.5448,2.50491 -15.78941,3.87091 -4.82958,1.30632 -9.73616,2.3178 -14.59922,3.49207 -5.82469,1.09518 -11.64587,2.2127 -17.59372,2.37686 -8.69017,0.30685 -17.3821,0.18905 -26.07629,0.17666 -9.33684,0.014 -18.6737,0.0119 -28.01044,0.0627 -5.73602,0.0451 -11.47369,0.0657 -17.20744,0.23228 0,0 12.11811,-8.80433 12.11811,-8.80433 z"
         id="path6185"
         style="opacity:1;fill:#000000;fill-opacity:1;fill-rule:nonzero;stroke:#000000;stroke-opacity:1" />
      <path
         inkscape:connector-curvature="0"
         d="m 455.75112,389.48321 c -5.55901,4.08125 -11.3583,6.56385 -17.30212,9.47322 -0.63117,0.30894 -1.21715,0.70888 -1.86091,0.99064 -1.20019,0.52531 -3.34065,1.14794 -4.58567,1.53267 -5.53605,1.44159 -11.20366,2.01635 -16.90145,2.26681 -7.05386,0.32486 -14.11789,0.26788 -21.17724,0.27441 -3.35217,0.099 -6.77448,-0.0679 -10.11362,0.34182 -2.99874,0.36796 -6.03782,1.12987 -8.95684,1.88794 -4.82937,1.79576 -9.69697,3.41433 -14.51125,5.24004 -0.75121,0.30055 -1.48809,0.63974 -2.25363,0.90164 -2.29795,0.78614 -4.66796,1.39858 -6.96997,2.18209 -4.77899,1.62659 0.004,0.2305 -4.68635,1.52793 -4.46359,1.42946 -8.87522,3.08218 -13.4429,4.13801 -3.82975,1.16183 -7.64393,2.48721 -11.56192,3.34097 -0.56653,0.10889 -1.14401,0.17128 -1.69958,0.32668 -0.49401,0.13817 -0.94371,0.40999 -1.43702,0.55065 -0.52222,0.14891 -1.07352,0.17558 -1.59839,0.31487 -0.55193,0.14648 -1.07316,0.39594 -1.62554,0.54073 -2.33063,0.46151 -1.20328,0.1894 -3.38506,0.80375 -3.08243,1.15251 -6.39084,1.01198 -9.55381,1.79433 -2.15314,0.0578 -4.15483,0.91716 -6.26679,1.20181 -0.49242,0.0664 -2.43476,0.20801 -2.9701,0.24891 -3.28563,0.69415 -6.64165,0.80934 -9.92392,1.52055 -4.01257,0.44697 -8.02784,0.8814 -12.05759,1.16874 -4.22268,0.14549 -8.42518,0.50191 -12.64905,0.52735 -3.33831,-0.0301 -6.67608,-0.0894 -10.01449,-0.10506 -2.94807,0.0335 -5.90835,-0.19601 -8.84293,0.1214 -3.1126,0.40092 -6.23505,0.65511 -9.37087,0.75104 -0.57821,0.0109 -1.1578,-0.009 -1.73463,0.0326 -0.52489,0.0377 -1.04052,0.16724 -1.56545,0.20433 -2.31764,0.16376 -4.62782,-0.0713 -6.94649,0.13592 -3.50594,0.60556 -7.06811,0.55675 -10.59816,0.90672 -3.1204,0.52338 -6.32821,0.39717 -9.43492,0.95232 -1.71591,0.20921 -3.4799,-0.1777 -5.17768,0.20458 -2.7929,0.62886 0.72953,0.13807 -2.3399,0.49438 -1.96994,0.42282 -4.02688,-0.0179 -5.97166,0.46562 -1.45497,0.58393 -2.88897,0.8401 -4.46093,0.8584 -1.09122,-0.18762 -1.79643,0.45366 -2.77261,0.79415 -0.65536,0.30971 -1.49516,-0.0654 -1.97149,0.51747 -0.64676,-0.10441 -1.28716,-0.23326 -1.93654,-0.32769 -0.17013,0.0995 -0.88224,-0.16047 -0.9918,-0.013 -0.0751,0.10113 -0.17945,0.43236 -0.0691,0.37159 4.2462,-2.33826 8.39674,-4.84619 12.59511,-7.26928 0,0 -13.90733,5.77022 -13.90733,5.77022 l 0,0 c 11.47289,-6.83413 8.51787,-8.53228 14.70034,-7.58023 0.51807,0.055 1.04112,0.13814 1.44938,-0.25705 0.71387,-0.004 1.34715,-0.1654 1.99429,-0.47334 0.993,-0.36872 1.92528,-0.45492 2.9914,-0.42763 1.48312,-0.17621 2.85867,-0.71335 4.33761,-0.91335 1.96863,-0.092 3.94619,-0.0916 5.89461,-0.433 2.49455,-0.49494 4.98285,-0.46045 7.51024,-0.65457 3.12909,-0.28926 6.2677,-0.47692 9.39166,-0.82755 3.55892,-0.24672 7.1115,-0.47373 10.65432,-0.90053 3.42385,-0.0918 6.84575,-0.10808 10.26414,-0.35776 3.12646,-0.17028 6.23973,-0.47698 9.35371,-0.79956 2.98539,-0.13486 5.9732,-0.0608 8.96068,-0.0443 3.29572,0.0717 6.59156,0.1569 9.88826,0.15499 4.18134,-0.0566 8.35858,-0.36255 12.53463,-0.56497 4.02058,-0.33055 8.03904,-0.76158 12.02829,-1.35888 3.35109,-0.58233 6.74506,-0.90598 10.10096,-1.4574 3.06745,-0.29785 6.0354,-1.10738 9.08068,-1.56202 3.18109,-0.57297 6.43964,-0.74312 9.51018,-1.84803 3.24638,-0.79051 6.43992,-1.78538 9.70958,-2.47434 3.8455,-1.03113 7.6572,-2.1874 11.47984,-3.29902 4.50928,-1.25622 8.94578,-2.73968 13.40144,-4.17053 4.64988,-1.43369 9.2714,-3.00246 13.83199,-4.69364 4.78819,-1.80463 9.64545,-3.44409 14.5125,-5.01674 6.29811,-1.43736 12.65886,-2.17077 19.13366,-1.85114 7.06391,-0.012 14.13141,-0.0346 21.18828,-0.38592 5.69015,-0.42848 11.3822,-1.03436 16.86598,-2.70602 6.14796,-2.13509 22.03614,-10.97146 -1.68252,2.38533 0,0 13.91645,-5.44511 13.91645,-5.44511 z"
         id="path6187"
         style="opacity:1;fill:#000000;fill-opacity:1;fill-rule:nonzero;stroke:#000000;stroke-opacity:1" />
      <path
         inkscape:connector-curvature="0"
         d="m 302.80837,372.63839 c 1.30219,0.8014 2.63086,1.57093 3.91921,2.4086 0.13895,0.12132 0.24933,0.28674 0.41685,0.36395 0.10276,0.0474 0.23474,-0.0593 0.33911,-0.0155 0.39566,0.16577 0.92651,0.72531 1.28177,1.0008 0.57969,0.67844 1.09964,0.97892 1.59994,1.79371 0.22036,0.34419 0.0827,0.34103 0.35798,0.20587 0,0 -12.62686,8.19862 -12.62686,8.19862 l 0,0 c -0.63968,-0.59147 -0.39206,-0.29446 -0.78693,-0.85239 -0.2874,-0.52673 -0.84842,-0.81355 -1.23381,-1.26507 -0.68567,-0.43391 -1.31765,-0.92517 -2.02394,-1.33355 -1.15729,-0.83332 -2.38368,-1.61317 -3.70236,-2.15815 0,0 12.45904,-8.34685 12.45904,-8.34685 z"
         id="path6199"
         style="opacity:1;fill:#000000;fill-opacity:1;fill-rule:nonzero;stroke:#000000;stroke-opacity:1" />
      <path
         inkscape:connector-curvature="0"
         d="m 333.12359,358.26519 c 1.09681,0.77619 1.68439,2.04359 2.55474,3.0086 0.31266,0.34667 0.73281,0.58229 1.06025,0.91503 0.31171,0.4324 0.59226,0.63589 1.08754,0.76399 0,0 -12.56757,8.24076 -12.56757,8.24076 l 0,0 c -0.49529,-0.34225 -0.95925,-0.68668 -1.30646,-1.19041 -1.32147,-1.3668 -2.36719,-2.94469 -3.79214,-4.22431 0,0 12.96364,-7.51366 12.96364,-7.51366 z"
         id="path6201"
         style="opacity:1;fill:#000000;fill-opacity:1;fill-rule:nonzero;stroke:#000000;stroke-opacity:1" />
      <path
         inkscape:connector-curvature="0"
         d="m 299.81756,356.97524 c 0.95793,1.13952 2.03361,2.19667 2.94705,3.37031 0.32593,0.67069 1.04195,0.89881 1.42671,1.42639 0.38121,-0.10598 0.13895,-0.097 0.5862,0.43047 0,0 -12.8372,7.86652 -12.8372,7.86652 l 0,0 c -0.35582,-0.19679 -0.11462,-0.0515 -0.67942,-0.50193 -0.43916,-0.29283 -1.0522,-0.97857 -1.40222,-1.53388 -0.87275,-1.12952 -1.81507,-2.21588 -2.82111,-3.22629 0,0 12.77999,-7.83159 12.77999,-7.83159 z"
         id="path6203"
         style="opacity:1;fill:#000000;fill-opacity:1;fill-rule:nonzero;stroke:#000000;stroke-opacity:1" />
      <path
         inkscape:connector-curvature="0"
         d="m 400.8537,416.29943 c 1.29813,0.77328 2.64893,1.59447 3.75237,2.63219 0.28233,0.62537 0.97646,0.6756 1.41521,1.10593 0.8497,0.83343 0.061,0.24957 0.68229,0.68261 0.20232,0.27391 0.97956,1.30337 1.30779,1.34539 0.21047,0.26806 0.36829,0.56667 0.51645,0.87131 0,0 -13.17197,7.40018 -13.17197,7.40018 l 0,0 c -0.0263,-0.0836 -0.0397,-0.18497 -0.12087,-0.23044 -0.43626,-0.48087 -0.96174,-0.87724 -1.3171,-1.42867 -0.65101,-0.65963 -1.47315,-1.108 -2.07713,-1.82589 -1.10614,-0.92124 -2.27802,-1.7635 -3.56714,-2.41305 0,0 12.5801,-8.13956 12.5801,-8.13956 z"
         id="path6205"
         style="opacity:1;fill:#000000;fill-opacity:1;fill-rule:nonzero;stroke:#000000;stroke-opacity:1" />
      <path
         inkscape:connector-curvature="0"
         d="m 370.54912,427.41111 c 1.45667,0.69519 3.06311,1.4743 4.17238,2.67477 0.42805,0.28117 0.57276,0.7816 1.04611,0.99629 0,0 -12.78613,8.02512 -12.78613,8.02512 l 0,0 c -0.37137,-0.38859 -0.6825,-0.83012 -1.08846,-1.18615 -1.12253,-1.05592 -2.55285,-1.70631 -3.92399,-2.37048 0,0 12.58009,-8.13955 12.58009,-8.13955 z"
         id="path6207"
         style="opacity:1;fill:#000000;fill-opacity:1;fill-rule:nonzero;stroke:#000000;stroke-opacity:1" />
      <path
         inkscape:connector-curvature="0"
         d="m 217.9662,452.20938 c 0.74722,1.30802 1.45008,2.6497 2.33303,3.87748 0.34359,1.20099 0.40434,0.91952 1.0183,1.41486 0.41405,0.62916 0.79064,1.13491 1.19013,1.80829 0.14642,-0.31978 0.50916,0.73894 0.62627,0.99185 0,0 -13.10282,7.44228 -13.10282,7.44228 l 0,0 c -0.9121,-1.74302 0.29091,0.32731 -0.61725,-0.92072 -0.21159,-0.42711 -0.58554,-0.96469 -0.80103,-1.20293 -0.73397,-0.39842 -1.06578,-1.1274 -1.2377,-1.91171 -0.88534,-1.26689 -1.51559,-2.69957 -2.37257,-3.98574 0,0 12.96364,-7.51366 12.96364,-7.51366 z"
         id="path6209"
         style="opacity:1;fill:#000000;fill-opacity:1;fill-rule:nonzero;stroke:#000000;stroke-opacity:1" />
      <path
         inkscape:connector-curvature="0"
         d="m 332.05317,267.11213 c 3.02706,-0.0563 6.01278,0.18426 8.98624,0.75037 1.59265,-0.0305 3.0738,0.50206 4.59608,0.84106 1.20625,0.26862 2.42471,0.32741 3.63053,0.61322 0.79233,0.58847 1.84252,0.45736 2.71058,0.75539 0.32571,0.11183 0.59859,0.34567 0.91883,0.47232 0.57876,0.2289 1.19295,0.35956 1.77359,0.58365 2.13904,0.95743 4.40358,1.68376 6.47922,2.8145 2.71609,1.66762 5.35585,3.39774 7.85427,5.38075 2.7044,2.33065 4.97072,5.1047 7.35153,7.75178 1.50995,2.34596 3.24671,4.51981 4.81599,6.82368 1.14981,1.42225 1.48586,3.29902 2.44406,4.81115 0.517,1.40367 1.33147,2.63206 1.92538,4.00204 0.48965,1.0108 0.8942,2.05413 1.08522,3.16768 0.20267,0.88516 0.52997,1.73746 0.69076,2.64602 0.18439,0.71697 0.21595,1.4568 0.21592,2.19348 0.0373,0.57815 0.0279,1.15818 0.0184,1.73699 0.0163,0.57516 -0.0243,1.15345 10e-4,1.72823 9.9e-4,0.56748 4e-4,1.1355 -0.0155,1.70338 0.0373,0.49773 -0.002,0.99406 0.024,1.4921 -0.004,0.60401 -0.0386,1.21012 -0.0116,1.8139 -0.009,0.48318 0.0183,0.968 0.005,1.45106 0.001,0.52589 -0.0289,1.05362 -0.005,1.5794 0,0 -13.44067,6.84836 -13.44067,6.84836 l 0,0 c 0.0224,-0.52402 -0.006,-1.0498 -0.005,-1.57389 -0.0133,-0.48489 0.0144,-0.97155 0.005,-1.45657 0.0256,-0.59991 -0.006,-1.20192 -0.0117,-1.80201 0.0253,-0.50619 -0.0124,-1.01057 0.0239,-1.51649 -0.0163,-0.56296 -0.0166,-1.12607 -0.0152,-1.68866 0.0251,-0.57768 -0.0124,-1.15858 0.006,-1.73663 -0.006,-0.57785 -0.006,-1.15623 0.0217,-1.73374 -0.0151,-0.67123 0.008,-1.34539 -0.098,-2.01076 -0.12555,-0.9612 -0.42448,-1.84132 -0.79062,-2.73677 0.0644,-1.01549 -0.38846,-1.83893 -0.76211,-2.76026 -0.57615,-1.31061 -1.3495,-2.49675 -1.81391,-3.85188 -0.8716,-1.54178 -1.33475,-3.27728 -2.32249,-4.77012 -1.54061,-2.24001 -3.10563,-4.46304 -4.59829,-6.73531 -2.29363,-2.60903 -4.54499,-5.30495 -7.23467,-7.5159 -2.44811,-1.90596 -5.05138,-3.56591 -7.75564,-5.08725 -2.11872,-0.95506 -4.28556,-1.78732 -6.45373,-2.62165 -1.74573,-0.5838 -3.48883,-1.16323 -5.26019,-1.66278 -2.68965,-0.50359 -5.34409,-1.17839 -8.06657,-1.48933 -2.99853,-0.43868 -6.0126,-0.5616 -9.04099,-0.40619 0,0 12.11812,-8.80432 12.11812,-8.80432 z"
         id="path6213"
         style="opacity:1;fill:#000000;fill-opacity:1;fill-rule:nonzero;stroke:#000000;stroke-opacity:1" />
    </g>
  </g>
</svg>
